Wavefont-wdflt,rmax,amin.ufo
<glyph name="_2" format="2">
	<unicode hex="0102"/>
	<unicode hex="0062"/>
	<advance width="25"/>
	<outline>
		<component base="cap"/>
		<component base="cap" yOffset="-5"/>
		<contour>
			<point x="0" y="13" type="line"/>
			<point x="0" y="8" type="line"/>
			<point x="25" y="8" type="line"/>
			<point x="25" y="13" type="line"/>
		</contour>
	</outline>
</glyph>
<glyph name="_4" format="2">
	<unicode hex="0104"/>
	<unicode hex="0063"/>
	<advance width="25"/>
	<outline>
		<component base="cap"/>
		<component base="cap" yOffset="15"/>
		<contour>
			<point x="0" y="13" type="line"/>
			<point x="0" y="28" type="line"/>
			<point x="25" y="28" type="line"/>
			<point x="25" y="13" type="line"/>
		</contour>
	</outline>
</glyph>
<glyph name="_5" format="2">
	<unicode hex="0105"/>
	<advance width="25"/>
	<outline>
		<component base="cap"/>
		<component base="cap" yOffset="25"/>
		<contour>
			<point x="0" y="13" type="line"/>
			<point x="0" y="38" type="line"/>
			<point x="25" y="38" type="line"/>
			<point x="25" y="13" type="line"/>
		</contour>
	</outline>
</glyph>
<glyph name="_8" format="2">
	<unicode hex="0108"/>
	<unicode hex="0065"/>
	<advance width="25"/>
	<outline>
		<component base="cap"/>
		<component base="cap" yOffset="55"/>
		<contour>
			<point x="0" y="13" type="line"/>
			<point x="0" y="68" type="line"/>
			<point x="25" y="68" type="line"/>
			<point x="25" y="13" type="line"/>
		</contour>
	</outline>
</glyph>
<glyph name="_10" format="2">
	<unicode hex="010A"/>
	<unicode hex="0031"/>
	<unicode hex="0066"/>
	<advance width="25"/>
	<outline>
		<component base="cap"/>
		<component base="cap" yOffset="75"/>
		<contour>
			<point x="0" y="13" type="line"/>
			<point x="0" y="88" type="line"/>
			<point x="25" y="88" type="line"/>
			<point x="25" y="13" type="line"/>
		</contour>
	</outline>
</glyph>
<glyph name="_12" format="2">
	<unicode hex="010C"/>
	<unicode hex="0067"/>
	<advance width="25"/>
	<outline>
		<component base="cap"/>
		<component base="cap" yOffset="95"/>
		<contour>
			<point x="0" y="13" type="line"/>
			<point x="0" y="108" type="line"/>
			<point x="25" y="108" type="line"/>
			<point x="25" y="13" type="line"/>
		</contour>
	</outline>
</glyph>
<glyph name="_14" format="2">
	<unicode hex="010E"/>
	<unicode hex="2582"/>
	<unicode hex="0068"/>
	<advance width="25"/>
	<outline>
		<component base="cap"/>
		<component base="cap" yOffset="115"/>
		<contour>
			<point x="0" y="13" type="line"/>
			<point x="0" y="128" type="line"/>
			<point x="25" y="128" type="line"/>
			<point x="25" y="13" type="line"/>
		</contour>
	</outline>
</glyph>
<glyph name="_15" format="2">
	<unicode hex="010F"/>
	<advance width="25"/>
	<outline>
		<component base="cap"/>
		<component base="cap" yOffset="125"/>
		<contour>
			<point x="0" y="13" type="line"/>
			<point x="0" y="138" type="line"/>
			<point x="25" y="138" type="line"/>
			<point x="25" y="13" type="line"/>
		</contour>
	</outline>
</glyph>
<glyph name="_16" format="2">
	<unicode hex="0110"/>
	<unicode hex="0069"/>
	<advance width="25"/>
	<outline>
		<component base="cap"/>
		<component base="cap" yOffset="135"/>
		<contour>
			<point x="0" y="13" type="line"/>
			<point x="0" y="148" type="line"/>
			<point x="25" y="148" type="line"/>
			<point x="25" y="13" type="line"/>
		</contour>
	</outline>
</glyph>
<glyph name="_20" format="2">
	<unicode hex="0114"/>
	<unicode hex="0032"/>
	<unicode hex="006B"/>
	<advance width="25"/>
	<outline>
		<component base="cap"/>
		<component base="cap" yOffset="175"/>
		<contour>
			<point x="0" y="13" type="line"/>
			<point x="0" y="188" type="line"/>
			<point x="25" y="188" type="line"/>
			<point x="25" y="13" type="line"/>
		</contour>
	</outline>
</glyph>
<glyph name="_21" format="2">
	<unicode hex="0115"/>
	<advance width="25"/>
	<outline>
		<component base="cap"/>
		<component base="cap" yOffset="185"/>
		<contour>
			<point x="0" y="13" type="line"/>
			<point x="0" y="198" type="line"/>
			<point x="25" y="198" type="line"/>
			<point x="25" y="13" type="line"/>
		</contour>
	</outline>
</glyph>
<glyph name="_22" format="2">
	<unicode hex="0116"/>
	<unicode hex="006C"/>
	<advance width="25"/>
	<outline>
		<component base="cap"/>
		<component base="cap" yOffset="195"/>
		<contour>
			<point x="0" y="13" type="line"/>
			<point x="0" y="208" type="line"/>
			<point x="25" y="208" type="line"/>
			<point x="25" y="13" type="line"/>
		</contour>
	</outline>
</glyph>
<glyph name="_23" format="2">
	<unicode hex="0117"/>
	<advance width="25"/>
	<outline>
		<component base="cap"/>
		<component base="cap" yOffset="205"/>
		<contour>
			<point x="0" y="13" type="line"/>
			<point x="0" y="218" type="line"/>
			<point x="25" y="218" type="line"/>
			<point x="25" y="13" type="line"/>
		</contour>
	</outline>
</glyph>
<glyph name="_24" format="2">
	<unicode hex="0118"/>
	<unicode hex="006D"/>
	<advance width="25"/>
	<outline>
		<component base="cap"/>
		<component base="cap" yOffset="215"/>
		<contour>
			<point x="0" y="13" type="line"/>
			<point x="0" y="228" type="line"/>
			<point x="25" y="228" type="line"/>
			<point x="25" y="13" type="line"/>
		</contour>
	</outline>
</glyph>
<glyph name="_25" format="2">
	<unicode hex="0119"/>
	<advance width="25"/>
	<outline>
		<component base="cap"/>
		<component base="cap" yOffset="225"/>
		<contour>
			<point x="0" y="13" type="line"/>
			<point x="0" y="238" type="line"/>
			<point x="25" y="238" type="line"/>
			<point x="25" y="13" type="line"/>
		</contour>
	</outline>
</glyph>
<glyph name="_26" format="2">
	<unicode hex="011A"/>
	<unicode hex="006E"/>
	<advance width="25"/>
	<outline>
		<component base="cap"/>
		<component base="cap" yOffset="235"/>
		<contour>
			<point x="0" y="13" type="line"/>
			<point x="0" y="248" type="line"/>
			<point x="25" y="248" type="line"/>
			<point x="25" y="13" type="line"/>
		</contour>
	</outline>
</glyph>
<glyph name="_27" format="2">
	<unicode hex="011B"/>
	<advance width="25"/>
	<outline>
		<component base="cap"/>
		<component base="cap" yOffset="245"/>
		<contour>
			<point x="0" y="13" type="line"/>
			<point x="0" y="258" type="line"/>
			<point x="25" y="258" type="line"/>
			<point x="25" y="13" type="line"/>
		</contour>
	</outline>
</glyph>
<glyph name="_28" format="2">
	<unicode hex="011C"/>
	<unicode hex="2583"/>
	<unicode hex="006F"/>
	<advance width="25"/>
	<outline>
		<component base="cap"/>
		<component base="cap" yOffset="255"/>
		<contour>
			<point x="0" y="13" type="line"/>
			<point x="0" y="268" type="line"/>
			<point x="25" y="268" type="line"/>
			<point x="25" y="13" type="line"/>
		</contour>
	</outline>
</glyph>
<glyph name="_29" format="2">
	<unicode hex="011D"/>
	<advance width="25"/>
	<outline>
		<component base="cap"/>
		<component base="cap" yOffset="265"/>
		<contour>
			<point x="0" y="13" type="line"/>
			<point x="0" y="278" type="line"/>
			<point x="25" y="278" type="line"/>
			<point x="25" y="13" type="line"/>
		</contour>
	</outline>
</glyph>
<glyph name="_30" format="2">
	<unicode hex="011E"/>
	<unicode hex="0033"/>
	<unicode hex="0070"/>
	<advance width="25"/>
	<outline>
		<component base="cap"/>
		<component base="cap" yOffset="275"/>
		<contour>
			<point x="0" y="13" type="line"/>
			<point x="0" y="288" type="line"/>
			<point x="25" y="288" type="line"/>
			<point x="25" y="13" type="line"/>
		</contour>
	</outline>
</glyph>
<glyph name="_32" format="2">
	<unicode hex="0120"/>
	<unicode hex="0071"/>
	<advance width="25"/>
	<outline>
		<component base="cap"/>
		<component base="cap" yOffset="295"/>
		<contour>
			<point x="0" y="13" type="line"/>
			<point x="0" y="308" type="line"/>
			<point x="25" y="308" type="line"/>
			<point x="25" y="13" type="line"/>
		</contour>
	</outline>
</glyph>
<glyph name="_33" format="2">
	<unicode hex="0121"/>
	<advance width="25"/>
	<outline>
		<component base="cap"/>
		<component base="cap" yOffset="305"/>
		<contour>
			<point x="0" y="13" type="line"/>
			<point x="0" y="318" type="line"/>
			<point x="25" y="318" type="line"/>
			<point x="25" y="13" type="line"/>
		</contour>
	</outline>
</glyph>
<glyph name="_35" format="2">
	<unicode hex="0123"/>
	<advance width="25"/>
	<outline>
		<component base="cap"/>
		<component base="cap" yOffset="325"/>
		<contour>
			<point x="0" y="13" type="line"/>
			<point x="0" y="338" type="line"/>
			<point x="25" y="338" type="line"/>
			<point x="25" y="13" type="line"/>
		</contour>
	</outline>
</glyph>
<glyph name="_36" format="2">
	<unicode hex="0124"/>
	<unicode hex="0073"/>
	<advance width="25"/>
	<outline>
		<component base="cap"/>
		<component base="cap" yOffset="335"/>
		<contour>
			<point x="0" y="13" type="line"/>
			<point x="0" y="348" type="line"/>
			<point x="25" y="348" type="line"/>
			<point x="25" y="13" type="line"/>
		</contour>
	</outline>
</glyph>
<glyph name="_37" format="2">
	<unicode hex="0125"/>
	<advance width="25"/>
	<outline>
		<component base="cap"/>
		<component base="cap" yOffset="345"/>
		<contour>
			<point x="0" y="13" type="line"/>
			<point x="0" y="358" type="line"/>
			<point x="25" y="358" type="line"/>
			<point x="25" y="13" type="line"/>
		</contour>
	</outline>
</glyph>
<glyph name="_38" format="2">
	<unicode hex="0126"/>
	<unicode hex="0074"/>
	<advance width="25"/>
	<outline>
		<component base="cap"/>
		<component base="cap" yOffset="355"/>
		<contour>
			<point x="0" y="13" type="line"/>
			<point x="0" y="368" type="line"/>
			<point x="25" y="368" type="line"/>
			<point x="25" y="13" type="line"/>
		</contour>
	</outline>
</glyph>
<glyph name="_39" format="2">
	<unicode hex="0127"/>
	<advance width="25"/>
	<outline>
		<component base="cap"/>
		<component base="cap" yOffset="365"/>
		<contour>
			<point x="0" y="13" type="line"/>
			<point x="0" y="378" type="line"/>
			<point x="25" y="378" type="line"/>
			<point x="25" y="13" type="line"/>
		</contour>
	</outline>
</glyph>
<glyph name="_40" format="2">
	<unicode hex="0128"/>
	<unicode hex="0034"/>
	<unicode hex="0075"/>
	<advance width="25"/>
	<outline>
		<component base="cap"/>
		<component base="cap" yOffset="375"/>
		<contour>
			<point x="0" y="13" type="line"/>
			<point x="0" y="388" type="line"/>
			<point x="25" y="388" type="line"/>
			<point x="25" y="13" type="line"/>
		</contour>
	</outline>
</glyph>
<glyph name="_42" format="2">
	<unicode hex="012A"/>
	<unicode hex="2584"/>
	<unicode hex="0076"/>
	<advance width="25"/>
	<outline>
		<component base="cap"/>
		<component base="cap" yOffset="395"/>
		<contour>
			<point x="0" y="13" type="line"/>
			<point x="0" y="408" type="line"/>
			<point x="25" y="408" type="line"/>
			<point x="25" y="13" type="line"/>
		</contour>
	</outline>
</glyph>
<glyph name="_43" format="2">
	<unicode hex="012B"/>
	<advance width="25"/>
	<outline>
		<component base="cap"/>
		<component base="cap" yOffset="405"/>
		<contour>
			<point x="0" y="13" type="line"/>
			<point x="0" y="418" type="line"/>
			<point x="25" y="418" type="line"/>
			<point x="25" y="13" type="line"/>
		</contour>
	</outline>
</glyph>
<glyph name="_45" format="2">
	<unicode hex="012D"/>
	<advance width="25"/>
	<outline>
		<component base="cap"/>
		<component base="cap" yOffset="425"/>
		<contour>
			<point x="0" y="13" type="line"/>
			<point x="0" y="438" type="line"/>
			<point x="25" y="438" type="line"/>
			<point x="25" y="13" type="line"/>
		</contour>
	</outline>
</glyph>
<glyph name="_46" format="2">
	<unicode hex="012E"/>
	<unicode hex="0078"/>
	<advance width="25"/>
	<outline>
		<component base="cap"/>
		<component base="cap" yOffset="435"/>
		<contour>
			<point x="0" y="13" type="line"/>
			<point x="0" y="448" type="line"/>
			<point x="25" y="448" type="line"/>
			<point x="25" y="13" type="line"/>
		</contour>
	</outline>
</glyph>
<glyph name="_47" format="2">
	<unicode hex="012F"/>
	<advance width="25"/>
	<outline>
		<component base="cap"/>
		<component base="cap" yOffset="445"/>
		<contour>
			<point x="0" y="13" type="line"/>
			<point x="0" y="458" type="line"/>
			<point x="25" y="458" type="line"/>
			<point x="25" y="13" type="line"/>
		</contour>
	</outline>
</glyph>
<glyph name="_48" format="2">
	<unicode hex="0130"/>
	<unicode hex="0079"/>
	<advance width="25"/>
	<outline>
		<component base="cap"/>
		<component base="cap" yOffset="455"/>
		<contour>
			<point x="0" y="13" type="line"/>
			<point x="0" y="468" type="line"/>
			<point x="25" y="468" type="line"/>
			<point x="25" y="13" type="line"/>
		</contour>
	</outline>
</glyph>
<glyph name="_49" format="2">
	<unicode hex="0131"/>
	<advance width="25"/>
	<outline>
		<component base="cap"/>
		<component base="cap" yOffset="465"/>
		<contour>
			<point x="0" y="13" type="line"/>
			<point x="0" y="478" type="line"/>
			<point x="25" y="478" type="line"/>
			<point x="25" y="13" type="line"/>
		</contour>
	</outline>
</glyph>
<glyph name="_51" format="2">
	<unicode hex="0133"/>
	<advance width="25"/>
	<outline>
		<component base="cap"/>
		<component base="cap" yOffset="485"/>
		<contour>
			<point x="0" y="13" type="line"/>
			<point x="0" y="498" type="line"/>
			<point x="25" y="498" type="line"/>
			<point x="25" y="13" type="line"/>
		</contour>
	</outline>
</glyph>
<glyph name="_54" format="2">
	<unicode hex="0136"/>
	<unicode hex="0042"/>
	<advance width="25"/>
	<outline>
		<component base="cap"/>
		<component base="cap" yOffset="515"/>
		<contour>
			<point x="0" y="13" type="line"/>
			<point x="0" y="528" type="line"/>
			<point x="25" y="528" type="line"/>
			<point x="25" y="13" type="line"/>
		</contour>
	</outline>
</glyph>
<glyph name="_56" format="2">
	<unicode hex="0138"/>
	<unicode hex="2585"/>
	<unicode hex="0043"/>
	<advance width="25"/>
	<outline>
		<component base="cap"/>
		<component base="cap" yOffset="535"/>
		<contour>
			<point x="0" y="13" type="line"/>
			<point x="0" y="548" type="line"/>
			<point x="25" y="548" type="line"/>
			<point x="25" y="13" type="line"/>
		</contour>
	</outline>
</glyph>
<glyph name="_57" format="2">
	<unicode hex="0139"/>
	<advance width="25"/>
	<outline>
		<component base="cap"/>
		<component base="cap" yOffset="545"/>
		<contour>
			<point x="0" y="13" type="line"/>
			<point x="0" y="558" type="line"/>
			<point x="25" y="558" type="line"/>
			<point x="25" y="13" type="line"/>
		</contour>
	</outline>
</glyph>
<glyph name="_59" format="2">
	<unicode hex="013B"/>
	<advance width="25"/>
	<outline>
		<component base="cap"/>
		<component base="cap" yOffset="565"/>
		<contour>
			<point x="0" y="13" type="line"/>
			<point x="0" y="578" type="line"/>
			<point x="25" y="578" type="line"/>
			<point x="25" y="13" type="line"/>
		</contour>
	</outline>
</glyph>
<glyph name="_61" format="2">
	<unicode hex="013D"/>
	<advance width="25"/>
	<outline>
		<component base="cap"/>
		<component base="cap" yOffset="585"/>
		<contour>
			<point x="0" y="13" type="line"/>
			<point x="0" y="598" type="line"/>
			<point x="25" y="598" type="line"/>
			<point x="25" y="13" type="line"/>
		</contour>
	</outline>
</glyph>
<glyph name="_62" format="2">
	<unicode hex="013E"/>
	<unicode hex="0046"/>
	<advance width="25"/>
	<outline>
		<component base="cap"/>
		<component base="cap" yOffset="595"/>
		<contour>
			<point x="0" y="13" type="line"/>
			<point x="0" y="608" type="line"/>
			<point x="25" y="608" type="line"/>
			<point x="25" y="13" type="line"/>
		</contour>
	</outline>
</glyph>
<glyph name="_64" format="2">
	<unicode hex="0140"/>
	<unicode hex="0047"/>
	<advance width="25"/>
	<outline>
		<component base="cap"/>
		<component base="cap" yOffset="615"/>
		<contour>
			<point x="0" y="13" type="line"/>
			<point x="0" y="628" type="line"/>
			<point x="25" y="628" type="line"/>
			<point x="25" y="13" type="line"/>
		</contour>
	</outline>
</glyph>
<glyph name="_65" format="2">
	<unicode hex="0141"/>
	<advance width="25"/>
	<outline>
		<component base="cap"/>
		<component base="cap" yOffset="625"/>
		<contour>
			<point x="0" y="13" type="line"/>
			<point x="0" y="638" type="line"/>
			<point x="25" y="638" type="line"/>
			<point x="25" y="13" type="line"/>
		</contour>
	</outline>
</glyph>
<glyph name="_66" format="2">
	<unicode hex="0142"/>
	<unicode hex="0048"/>
	<advance width="25"/>
	<outline>
		<component base="cap"/>
		<component base="cap" yOffset="635"/>
		<contour>
			<point x="0" y="13" type="line"/>
			<point x="0" y="648" type="line"/>
			<point x="25" y="648" type="line"/>
			<point x="25" y="13" type="line"/>
		</contour>
	</outline>
</glyph>
<glyph name="_68" format="2">
	<unicode hex="0144"/>
	<unicode hex="0049"/>
	<advance width="25"/>
	<outline>
		<component base="cap"/>
		<component base="cap" yOffset="655"/>
		<contour>
			<point x="0" y="13" type="line"/>
			<point x="0" y="668" type="line"/>
			<point x="25" y="668" type="line"/>
			<point x="25" y="13" type="line"/>
		</contour>
	</outline>
</glyph>
<glyph name="_70" format="2">
	<unicode hex="0146"/>
	<unicode hex="0037"/>
	<unicode hex="004A"/>
	<advance width="25"/>
	<outline>
		<component base="cap"/>
		<component base="cap" yOffset="675"/>
		<contour>
			<point x="0" y="13" type="line"/>
			<point x="0" y="688" type="line"/>
			<point x="25" y="688" type="line"/>
			<point x="25" y="13" type="line"/>
		</contour>
	</outline>
</glyph>
<glyph name="_73" format="2">
	<unicode hex="0149"/>
	<advance width="25"/>
	<outline>
		<component base="cap"/>
		<component base="cap" yOffset="705"/>
		<contour>
			<point x="0" y="13" type="line"/>
			<point x="0" y="718" type="line"/>
			<point x="25" y="718" type="line"/>
			<point x="25" y="13" type="line"/>
		</contour>
	</outline>
</glyph>
<glyph name="_77" format="2">
	<unicode hex="014D"/>
	<advance width="25"/>
	<outline>
		<component base="cap"/>
		<component base="cap" yOffset="745"/>
		<contour>
			<point x="0" y="13" type="line"/>
			<point x="0" y="758" type="line"/>
			<point x="25" y="758" type="line"/>
			<point x="25" y="13" type="line"/>
		</contour>
	</outline>
</glyph>
<glyph name="_79" format="2">
	<unicode hex="014F"/>
	<advance width="25"/>
	<outline>
		<component base="cap"/>
		<component base="cap" yOffset="765"/>
		<contour>
			<point x="0" y="13" type="line"/>
			<point x="0" y="778" type="line"/>
			<point x="25" y="778" type="line"/>
			<point x="25" y="13" type="line"/>
		</contour>
	</outline>
</glyph>
<glyph name="_81" format="2">
	<unicode hex="0151"/>
	<advance width="25"/>
	<outline>
		<component base="cap"/>
		<component base="cap" yOffset="785"/>
		<contour>
			<point x="0" y="13" type="line"/>
			<point x="0" y="798" type="line"/>
			<point x="25" y="798" type="line"/>
			<point x="25" y="13" type="line"/>
		</contour>
	</outline>
</glyph>
<glyph name="_82" format="2">
	<unicode hex="0152"/>
	<unicode hex="0050"/>
	<advance width="25"/>
	<outline>
		<component base="cap"/>
		<component base="cap" yOffset="795"/>
		<contour>
			<point x="0" y="13" type="line"/>
			<point x="0" y="808" type="line"/>
			<point x="25" y="808" type="line"/>
			<point x="25" y="13" type="line"/>
		</contour>
	</outline>
</glyph>
<glyph name="_84" format="2">
	<unicode hex="0154"/>
	<unicode hex="0051"/>
	<advance width="25"/>
	<outline>
		<component base="cap"/>
		<component base="cap" yOffset="815"/>
		<contour>
			<point x="0" y="13" type="line"/>
			<point x="0" y="828" type="line"/>
			<point x="25" y="828" type="line"/>
			<point x="25" y="13" type="line"/>
		</contour>
	</outline>
</glyph>
<glyph name="_85" format="2">
	<unicode hex="0155"/>
	<advance width="25"/>
	<outline>
		<component base="cap"/>
		<component base="cap" yOffset="825"/>
		<contour>
			<point x="0" y="13" type="line"/>
			<point x="0" y="838" type="line"/>
			<point x="25" y="838" type="line"/>
			<point x="25" y="13" type="line"/>
		</contour>
	</outline>
</glyph>
<glyph name="_86" format="2">
	<unicode hex="0156"/>
	<unicode hex="2587"/>
	<unicode hex="0052"/>
	<advance width="25"/>
	<outline>
		<component base="cap"/>
		<component base="cap" yOffset="835"/>
		<contour>
			<point x="0" y="13" type="line"/>
			<point x="0" y="848" type="line"/>
			<point x="25" y="848" type="line"/>
			<point x="25" y="13" type="line"/>
		</contour>
	</outline>
</glyph>
<glyph name="_88" format="2">
	<unicode hex="0158"/>
	<unicode hex="0053"/>
	<advance width="25"/>
	<outline>
		<component base="cap"/>
		<component base="cap" yOffset="855"/>
		<contour>
			<point x="0" y="13" type="line"/>
			<point x="0" y="868" type="line"/>
			<point x="25" y="868" type="line"/>
			<point x="25" y="13" type="line"/>
		</contour>
	</outline>
</glyph>
<glyph name="_90" format="2">
	<unicode hex="015A"/>
	<unicode hex="0039"/>
	<unicode hex="0054"/>
	<advance width="25"/>
	<outline>
		<component base="cap"/>
		<component base="cap" yOffset="875"/>
		<contour>
			<point x="0" y="13" type="line"/>
			<point x="0" y="888" type="line"/>
			<point x="25" y="888" type="line"/>
			<point x="25" y="13" type="line"/>
		</contour>
	</outline>
</glyph>
<glyph name="_91" format="2">
	<unicode hex="015B"/>
	<advance width="25"/>
	<outline>
		<component base="cap"/>
		<component base="cap" yOffset="885"/>
		<contour>
			<point x="0" y="13" type="line"/>
			<point x="0" y="898" type="line"/>
			<point x="25" y="898" type="line"/>
			<point x="25" y="13" type="line"/>
		</contour>
	</outline>
</glyph>
<glyph name="_92" format="2">
	<unicode hex="015C"/>
	<unicode hex="0055"/>
	<advance width="25"/>
	<outline>
		<component base="cap"/>
		<component base="cap" yOffset="895"/>
		<contour>
			<point x="0" y="13" type="line"/>
			<point x="0" y="908" type="line"/>
			<point x="25" y="908" type="line"/>
			<point x="25" y="13" type="line"/>
		</contour>
	</outline>
</glyph>
<glyph name="_93" format="2">
	<unicode hex="015D"/>
	<advance width="25"/>
	<outline>
		<component base="cap"/>
		<component base="cap" yOffset="905"/>
		<contour>
			<point x="0" y="13" type="line"/>
			<point x="0" y="918" type="line"/>
			<point x="25" y="918" type="line"/>
			<point x="25" y="13" type="line"/>
		</contour>
	</outline>
</glyph>
<glyph name="_94" format="2">
	<unicode hex="015E"/>
	<unicode hex="0056"/>
	<advance width="25"/>
	<outline>
		<component base="cap"/>
		<component base="cap" yOffset="915"/>
		<contour>
			<point x="0" y="13" type="line"/>
			<point x="0" y="928" type="line"/>
			<point x="25" y="928" type="line"/>
			<point x="25" y="13" type="line"/>
		</contour>
	</outline>
</glyph>
<glyph name="_95" format="2">
	<unicode hex="015F"/>
	<advance width="25"/>
	<outline>
		<component base="cap"/>
		<component base="cap" yOffset="925"/>
		<contour>
			<point x="0" y="13" type="line"/>
			<point x="0" y="938" type="line"/>
			<point x="25" y="938" type="line"/>
			<point x="25" y="13" type="line"/>
		</contour>
	</outline>
</glyph>
<glyph name="_103" format="2">
	<unicode hex="0167"/>
	<advance width="25"/>
	<outline>
		<component base="cap"/>
		<component base="cap" yOffset="1005"/>
		<contour>
			<point x="0" y="13" type="line"/>
			<point x="0" y="1018" type="line"/>
			<point x="25" y="1018" type="line"/>
			<point x="25" y="13" type="line"/>
		</contour>
	</outline>
</glyph>
<glyph name="_105" format="2">
	<unicode hex="0169"/>
	<advance width="25"/>
	<outline>
		<component base="cap"/>
		<component base="cap" yOffset="1025"/>
		<contour>
			<point x="0" y="13" type="line"/>
			<point x="0" y="1038" type="line"/>
			<point x="25" y="1038" type="line"/>
			<point x="25" y="13" type="line"/>
		</contour>
	</outline>
</glyph>
<glyph name="_106" format="2">
	<unicode hex="016A"/>
	<advance width="25"/>
	<outline>
		<component base="cap"/>
		<component base="cap" yOffset="1035"/>
		<contour>
			<point x="0" y="13" type="line"/>
			<point x="0" y="1048" type="line"/>
			<point x="25" y="1048" type="line"/>
			<point x="25" y="13" type="line"/>
		</contour>
	</outline>
</glyph>
<glyph name="_108" format="2">
	<unicode hex="016C"/>
	<advance width="25"/>
	<outline>
		<component base="cap"/>
		<component base="cap" yOffset="1055"/>
		<contour>
			<point x="0" y="13" type="line"/>
			<point x="0" y="1068" type="line"/>
			<point x="25" y="1068" type="line"/>
			<point x="25" y="13" type="line"/>
		</contour>
	</outline>
</glyph>
<glyph name="_109" format="2">
	<unicode hex="016D"/>
	<advance width="25"/>
	<outline>
		<component base="cap"/>
		<component base="cap" yOffset="1065"/>
		<contour>
			<point x="0" y="13" type="line"/>
			<point x="0" y="1078" type="line"/>
			<point x="25" y="1078" type="line"/>
			<point x="25" y="13" type="line"/>
		</contour>
	</outline>
</glyph>
<glyph name="_111" format="2">
	<unicode hex="016F"/>
	<advance width="25"/>
	<outline>
		<component base="cap"/>
		<component base="cap" yOffset="1085"/>
		<contour>
			<point x="0" y="13" type="line"/>
			<point x="0" y="1098" type="line"/>
			<point x="25" y="1098" type="line"/>
			<point x="25" y="13" type="line"/>
		</contour>
	</outline>
</glyph>
<glyph name="_113" format="2">
	<unicode hex="0171"/>
	<advance width="25"/>
	<outline>
		<component base="cap"/>
		<component base="cap" yOffset="1105"/>
		<contour>
			<point x="0" y="13" type="line"/>
			<point x="0" y="1118" type="line"/>
			<point x="25" y="1118" type="line"/>
			<point x="25" y="13" type="line"/>
		</contour>
	</outline>
</glyph>
<glyph name="_114" format="2">
	<unicode hex="0172"/>
	<advance width="25"/>
	<outline>
		<component base="cap"/>
		<component base="cap" yOffset="1115"/>
		<contour>
			<point x="0" y="13" type="line"/>
			<point x="0" y="1128" type="line"/>
			<point x="25" y="1128" type="line"/>
			<point x="25" y="13" type="line"/>
		</contour>
	</outline>
</glyph>
<glyph name="_115" format="2">
	<unicode hex="0173"/>
	<advance width="25"/>
	<outline>
		<component base="cap"/>
		<component base="cap" yOffset="1125"/>
		<contour>
			<point x="0" y="13" type="line"/>
			<point x="0" y="1138" type="line"/>
			<point x="25" y="1138" type="line"/>
			<point x="25" y="13" type="line"/>
		</contour>
	</outline>
</glyph>
<glyph name="_116" format="2">
	<unicode hex="0174"/>
	<advance width="25"/>
	<outline>
		<component base="cap"/>
		<component base="cap" yOffset="1135"/>
		<contour>
			<point x="0" y="13" type="line"/>
			<point x="0" y="1148" type="line"/>
			<point x="25" y="1148" type="line"/>
			<point x="25" y="13" type="line"/>
		</contour>
	</outline>
</glyph>
<glyph name="_117" format="2">
	<unicode hex="0175"/>
	<advance width="25"/>
	<outline>
		<component base="cap"/>
		<component base="cap" yOffset="1145"/>
		<contour>
			<point x="0" y="13" type="line"/>
			<point x="0" y="1158" type="line"/>
			<point x="25" y="1158" type="line"/>
			<point x="25" y="13" type="line"/>
		</contour>
	</outline>
</glyph>
<glyph name="_119" format="2">
	<unicode hex="0177"/>
	<advance width="25"/>
	<outline>
		<component base="cap"/>
		<component base="cap" yOffset="1165"/>
		<contour>
			<point x="0" y="13" type="line"/>
			<point x="0" y="1178" type="line"/>
			<point x="25" y="1178" type="line"/>
			<point x="25" y="13" type="line"/>
		</contour>
	</outline>
</glyph>
<glyph name="_120" format="2">
	<unicode hex="0178"/>
	<advance width="25"/>
	<outline>
		<component base="cap"/>
		<component base="cap" yOffset="1175"/>
		<contour>
			<point x="0" y="13" type="line"/>
			<point x="0" y="1188" type="line"/>
			<point x="25" y="1188" type="line"/>
			<point x="25" y="13" type="line"/>
		</contour>
	</outline>
</glyph>
<glyph name="_122" format="2">
	<unicode hex="017A"/>
	<advance width="25"/>
	<outline>
		<component base="cap"/>
		<component base="cap" yOffset="1195"/>
		<contour>
			<point x="0" y="13" type="line"/>
			<point x="0" y="1208" type="line"/>
			<point x="25" y="1208" type="line"/>
			<point x="25" y="13" type="line"/>
		</contour>
	</outline>
</glyph>
<glyph name="_123" format="2">
	<unicode hex="017B"/>
	<advance width="25"/>
	<outline>
		<component base="cap"/>
		<component base="cap" yOffset="1205"/>
		<contour>
			<point x="0" y="13" type="line"/>
			<point x="0" y="1218" type="line"/>
			<point x="25" y="1218" type="line"/>
			<point x="25" y="13" type="line"/>
		</contour>
	</outline>
</glyph>
<glyph name="_124" format="2">
	<unicode hex="017C"/>
	<advance width="25"/>
	<outline>
		<component base="cap"/>
		<component base="cap" yOffset="1215"/>
		<contour>
			<point x="0" y="13" type="line"/>
			<point x="0" y="1228" type="line"/>
			<point x="25" y="1228" type="line"/>
			<point x="25" y="13" type="line"/>
		</contour>
	</outline>
</glyph>
<glyph name="_1.clip" format="2">
	<advance width="25"/>
	<outline>
		<contour>
			<point x="0" y="7.75"/>
			<point x="2.25" y="10"/>
			<point x="5" y="10" type="curve" smooth="yes"/>
			<point x="20" y="10" type="line"/>
			<point x="22.75" y="10"/>
			<point x="25" y="7.75"/>
			<point x="25" y="5" type="curve" smooth="yes"/>
			<point x="25" y="5" type="line"/>
			<point x="25" y="2.25"/>
			<point x="22.75" y="0"/>
			<point x="20" y="0" type="curve" smooth="yes"/>
			<point x="5" y="0" type="line"/>
			<point x="2.25" y="0"/>
			<point x="0" y="2.25"/>
			<point x="0" y="5" type="curve" smooth="yes"/>
			<point x="0" y="5" type="line"/>
		</contour>
	</outline>
</glyph>
<glyph name="_13.clip" format="2">
	<advance width="25"/>
	<outline>
		<contour>
			<point x="0" y="100.75"/>
			<point x="29.25" y="130"/>
			<point x="65" y="130" type="curve" smooth="yes"/>
			<point x="-40" y="130" type="line"/>
			<point x="-4.25" y="130"/>
			<point x="25" y="100.75"/>
			<point x="25" y="65" type="curve" smooth="yes"/>
			<point x="25" y="65" type="line"/>
			<point x="25" y="29.25"/>
			<point x="-4.25" y="0"/>
			<point x="-40" y="0" type="curve" smooth="yes"/>
			<point x="65" y="0" type="line"/>
			<point x="29.25" y="0"/>
			<point x="0" y="29.25"/>
			<point x="0" y="65" type="curve" smooth="yes"/>
			<point x="0" y="65" type="line"/>
		</contour>
	</outline>
</glyph>
<glyph name="_16.clip" format="2">
	<advance width="25"/>
	<outline>
		<contour>
			<point x="0" y="124"/>
			<point x="36" y="160"/>
			<point x="80" y="160" type="curve" smooth="yes"/>
			<point x="-55" y="160" type="line"/>
			<point x="-11" y="160"/>
			<point x="25" y="124"/>
			<point x="25" y="80" type="curve" smooth="yes"/>
			<point x="25" y="80" type="line"/>
			<point x="25" y="36"/>
			<point x="-11" y="0"/>
			<point x="-55" y="0" type="curve" smooth="yes"/>
			<point x="80" y="0" type="line"/>
			<point x="36" y="0"/>
			<point x="0" y="36"/>
			<point x="0" y="80" type="curve" smooth="yes"/>
			<point x="0" y="80" type="line"/>
		</contour>
	</outline>
</glyph>
<glyph name="_17.clip" format="2">
	<advance width="25"/>
	<outline>
		<contour>
			<point x="0" y="131.75"/>
			<point x="38.25" y="170"/>
			<point x="85" y="170" type="curve" smooth="yes"/>
			<point x="-60" y="170" type="line"/>
			<point x="-13.25" y="170"/>
			<point x="25" y="131.75"/>
			<point x="25" y="85" type="curve" smooth="yes"/>
			<point x="25" y="85" type="line"/>
			<point x="25" y="38.25"/>
			<point x="-13.25" y="0"/>
			<point x="-60" y="0" type="curve" smooth="yes"/>
			<point x="85" y="0" type="line"/>
			<point x="38.25" y="0"/>
			<point x="0" y="38.25"/>
			<point x="0" y="85" type="curve" smooth="yes"/>
			<point x="0" y="85" type="line"/>
		</contour>
	</outline>
</glyph>
<glyph name="_18.clip" format="2">
	<advance width="25"/>
	<outline>
		<contour>
			<point x="0" y="139.5"/>
			<point x="40.5" y="180"/>
			<point x="90" y="180" type="curve" smooth="yes"/>
			<point x="-65" y="180" type="line"/>
			<point x="-15.5" y="180"/>
			<point x="25" y="139.5"/>
			<point x="25" y="90" type="curve" smooth="yes"/>
			<point x="25" y="90" type="line"/>
			<point x="25" y="40.5"/>
			<point x="-15.5" y="0"/>
			<point x="-65" y="0" type="curve" smooth="yes"/>
			<point x="90" y="0" type="line"/>
			<point x="40.5" y="0"/>
			<point x="0" y="40.5"/>
			<point x="0" y="90" type="curve" smooth="yes"/>
			<point x="0" y="90" type="line"/>
		</contour>
	</outline>
</glyph>
<glyph name="_21.clip" format="2">
	<advance width="25"/>
	<outline>
		<contour>
			<point x="0" y="162.75"/>
			<point x="47.25" y="210"/>
			<point x="105" y="210" type="curve" smooth="yes"/>
			<point x="-80" y="210" type="line"/>
			<point x="-22.25" y="210"/>
			<point x="25" y="162.75"/>
			<point x="25" y="105" type="curve" smooth="yes"/>
			<point x="25" y="105" type="line"/>
			<point x="25" y="47.25"/>
			<point x="-22.25" y="0"/>
			<point x="-80" y="0" type="curve" smooth="yes"/>
			<point x="105" y="0" type="line"/>
			<point x="47.25" y="0"/>
			<point x="0" y="47.25"/>
			<point x="0" y="105" type="curve" smooth="yes"/>
			<point x="0" y="105" type="line"/>
		</contour>
	</outline>
</glyph>
<glyph name="_22.clip" format="2">
	<advance width="25"/>
	<outline>
		<contour>
			<point x="0" y="170.5"/>
			<point x="49.5" y="220"/>
			<point x="110" y="220" type="curve" smooth="yes"/>
			<point x="-85" y="220" type="line"/>
			<point x="-24.5" y="220"/>
			<point x="25" y="170.5"/>
			<point x="25" y="110" type="curve" smooth="yes"/>
			<point x="25" y="110" type="line"/>
			<point x="25" y="49.5"/>
			<point x="-24.5" y="0"/>
			<point x="-85" y="0" type="curve" smooth="yes"/>
			<point x="110" y="0" type="line"/>
			<point x="49.5" y="0"/>
			<point x="0" y="49.5"/>
			<point x="0" y="110" type="curve" smooth="yes"/>
			<point x="0" y="110" type="line"/>
		</contour>
	</outline>
</glyph>
<glyph name="_3.clip" format="2">
	<advance width="25"/>
	<outline>
		<contour>
			<point x="0" y="23.25"/>
			<point x="6.75" y="30"/>
			<point x="15" y="30" type="curve" smooth="yes"/>
			<point x="10" y="30" type="line"/>
			<point x="18.25" y="30"/>
			<point x="25" y="23.25"/>
			<point x="25" y="15" type="curve" smooth="yes"/>
			<point x="25" y="15" type="line"/>
			<point x="25" y="6.75"/>
			<point x="18.25" y="0"/>
			<point x="10" y="0" type="curve" smooth="yes"/>
			<point x="15" y="0" type="line"/>
			<point x="6.75" y="0"/>
			<point x="0" y="6.75"/>
			<point x="0" y="15" type="curve" smooth="yes"/>
			<point x="0" y="15" type="line"/>
		</contour>
	</outline>
</glyph>
<glyph name="_8.clip" format="2">
	<advance width="25"/>
	<outline>
		<contour>
			<point x="0" y="62"/>
			<point x="18" y="80"/>
			<point x="40" y="80" type="curve" smooth="yes"/>
			<point x="-15" y="80" type="line"/>
			<point x="7" y="80"/>
			<point x="25" y="62"/>
			<point x="25" y="40" type="curve" smooth="yes"/>
			<point x="25" y="40" type="line"/>
			<point x="25" y="18"/>
			<point x="7" y="0"/>
			<point x="-15" y="0" type="curve" smooth="yes"/>
			<point x="40" y="0" type="line"/>
			<point x="18" y="0"/>
			<point x="0" y="18"/>
			<point x="0" y="40" type="curve" smooth="yes"/>
			<point x="0" y="40" type="line"/>
		</contour>
	</outline>
</glyph>
